<?xml version="1.0" encoding="UTF-8"?>
<svg width="292px" height="52px" viewBox="0 0 292 52" version="1.1" xmlns="http://www.w3.org/2000/svg" xmlns:xlink="http://www.w3.org/1999/xlink">
    <title>omni@1x</title>
    <g id="Page-1" stroke="none" stroke-width="1" fill="none" fill-rule="evenodd">
        <g id="Artboard" transform="translate(-19.000000, -4.000000)">
            <g id="omni" transform="translate(19.000000, 4.000000)">
                <path d="M72.1032448,25.74608 C75.8706218,25.74608 78.7228434,26.8033035 80.644258,28.9301873 C82.5573834,31.0468072 83.5084288,34.0957265 83.5084288,38.065184 C83.5084288,42.0343831 82.5262053,45.1059387 80.5519077,47.26978 C78.5722946,49.439314 75.764193,50.521376 72.1489408,50.521376 C68.4120271,50.521376 65.5796573,49.454954 63.674958,47.3140775 C61.7761587,45.1813882 60.8324608,42.094423 60.8324608,38.065184 C60.8324608,29.8924221 64.6170719,25.74608 72.1032448,25.74608 Z M109.053837,16.6976 L109.053837,44.690432 C109.053837,46.0002568 108.50953,47.1139756 107.436999,48.007273 C106.395947,48.8743526 105.091225,49.5109378 103.526834,49.9182595 C101.981251,50.3203291 100.387468,50.520704 98.7440128,50.520704 C95.4130134,50.520704 92.6619157,49.5756283 90.5007631,47.6823758 C88.323357,45.7724437 87.2460928,42.4689942 87.2460928,37.788992 C87.2460928,34.0372132 88.166472,31.0902795 90.0162174,28.9555324 C91.8766716,26.812812 94.6246912,25.745408 98.2413568,25.745408 C99.0878313,25.745408 100.059332,25.8530858 101.156662,26.0684644 C101.848925,26.206917 102.495848,26.3870925 103.098033,26.6094189 L103.45398,26.7478763 L103.696,26.852 L103.696653,16.6976 L109.053837,16.6976 Z M124.973114,25.7455424 C128.629373,25.7455424 131.334504,26.9358002 133.055176,29.3196621 C134.692147,31.5875624 135.52325,34.7109476 135.557105,38.6840936 L135.557105,39.1649496 L135.554867,39.4650944 L119.497,39.465 L119.500701,39.5017953 C119.669582,41.2745419 120.175967,42.6688964 121.017134,43.6967988 L121.18983,43.8974967 L121.371449,44.0884439 C122.481796,45.2000644 124.072252,45.7590464 126.162554,45.7590464 C127.541497,45.7590464 128.853978,45.5879105 130.102787,45.2442261 C131.195728,44.9457339 132.179466,44.5705843 133.050043,44.1220976 L133.416208,43.9254086 L133.866362,43.6733225 L133.866362,48.8627025 L133.684972,48.9419066 C131.271213,49.9958783 128.505287,50.5208384 125.384378,50.5208384 C121.860614,50.5208384 119.077906,49.4476662 117.053222,47.296958 C115.031049,45.1503011 114.023546,42.1115976 114.023546,38.2017344 C114.023546,34.2028567 114.974406,31.1239955 116.887497,28.9757444 C118.804841,26.8211604 121.507925,25.7455424 124.973114,25.7455424 Z M49.7130112,25.7901632 C52.2186897,25.7901632 54.6030725,26.254334 56.8649768,27.1823297 L56.8649768,27.1823297 L57.0525952,27.2593043 L57.0525952,32.2159191 L56.632695,32.0388498 C54.3513333,31.0768139 52.2734229,30.5976512 50.3984512,30.5976512 C48.0676371,30.5976512 46.3472086,31.1743437 45.2215889,32.3139699 C44.0971751,33.4536473 43.5265792,35.289688 43.5265792,37.8364352 C43.5265792,40.5099695 44.0847831,42.4429368 45.1837295,43.6413241 C46.2753123,44.8343316 48.0525547,45.4380992 50.5355392,45.4380992 C52.561789,45.4380992 54.6047092,44.9466141 56.6640071,43.9611023 L56.6640071,43.9611023 L57.0969472,43.7539115 L57.0969472,48.7242935 L56.917599,48.804187 C54.6885262,49.7971625 52.3018155,50.2926272 49.7587072,50.2926272 C46.4584698,50.2926272 43.6999932,49.3393479 41.4957048,47.4316313 C39.2729911,45.5119517 38.1693952,42.4270644 38.1693952,38.2020032 C38.1693952,33.856692 39.2555651,30.6912826 41.4454906,28.7236846 C43.6207215,26.7680484 46.3815048,25.7901632 49.7130112,25.7901632 Z M6.23830656,26.4305792 L6.28521466,49.8363392 L0.836031999,49.8363392 L0.836031999,26.4305792 L6.23830656,26.4305792 Z M23.529472,25.7902976 C26.7961245,25.7902976 29.2251622,26.4796658 30.8122342,27.8764012 C32.4078833,29.2819244 33.199552,31.4501956 33.199552,34.3636736 L33.199552,34.3636736 L33.199552,49.8358016 L27.796672,49.8358016 L27.796672,35.0047616 C27.796672,31.9810247 26.1271941,30.5077376 22.661248,30.5077376 C20.9595614,30.5077376 19.3335117,30.7907005 17.7840755,31.3562842 L17.9816,31.2866 L17.982784,49.8358016 L12.57856,49.8358016 L12.57856,28.2823598 L12.7435111,28.1981879 C14.1372859,27.4869669 15.8275093,26.9085803 17.819818,26.4588802 C19.8062558,26.0132225 21.7085934,25.7902976 23.529472,25.7902976 Z M72.1032448,30.36944 C69.9709602,30.36944 68.4732241,31.0082548 67.5748603,32.276533 C66.6565263,33.5742908 66.1909888,35.502946 66.1909888,38.065184 C66.1909888,40.6273838 66.6709908,42.5698767 67.6198302,43.8985093 C68.5479909,45.198691 70.0315204,45.850976 72.1032448,45.850976 C76.1214761,45.850976 78.1068928,43.3044633 78.1068928,38.065184 C78.1068928,35.4455668 77.6198681,33.5049555 76.6604054,32.2389265 C75.717281,30.9957171 74.2067919,30.36944 72.1032448,30.36944 Z M98.9267968,30.461504 C94.7803612,30.461504 92.7390208,32.8905691 92.7390208,37.881728 C92.7390208,40.3851018 93.2128323,42.3299479 94.1512388,43.7207552 C95.0623229,45.0766997 96.6710511,45.758912 99.0181888,45.758912 C100.392013,45.758912 101.538746,45.597051 102.459695,45.2745897 C103.251754,44.9972584 103.639407,44.6725701 103.690745,44.3162532 L103.696653,44.233472 L103.696,31.662 L103.537489,31.5745379 C103.013437,31.29896 102.449727,31.0725138 101.84651,30.8960946 L101.479841,30.7962534 C100.60193,30.5731671 99.7507442,30.461504 98.9267968,30.461504 Z M124.836026,30.2801984 C123.291326,30.2801984 122.102441,30.6806016 121.249649,31.4769595 C120.495279,32.1814078 119.964142,33.3417262 119.66712,34.9638293 L119.61,35.294 L130.024,35.294 L130.023271,35.2823893 C129.806573,33.6880677 129.3484,32.4971149 128.656441,31.7010721 L128.504589,31.536533 C127.684071,30.7022776 126.466486,30.2801984 124.836026,30.2801984 Z M6.421696,18.2953472 L6.421696,23.2412672 L0.697599999,23.2412672 L0.697599999,18.2953472 L6.421696,18.2953472 Z" id="Combined-Shape" fill="#21273B" fill-rule="nonzero"></path>
                <path d="M163.91596,16.64264 C167.68636,16.64264 170.72476,17.94464 173.03116,20.54864 C175.33756,23.15264 176.68876,26.36384 177.08596,30.18344 C178.809485,30.07339 180.77784,29.7736461 182.990054,29.2837229 C183.447632,26.4119822 184.107639,23.612091 184.97032,20.88356 C185.41672,19.44596 186.14752,18.39116 187.16512,17.72156 C188.18152,17.05196 189.60832,16.71716 191.44432,16.71716 C192.43552,16.71716 193.12912,16.84196 193.52752,17.08916 C193.92352,17.33756 194.12152,17.80916 194.12152,18.50276 C194.12152,19.29716 193.74952,21.08276 193.00552,23.85836 C192.50992,25.84436 192.11272,27.56756 191.81512,29.03036 C191.51752,30.49436 191.26912,32.31596 191.07112,34.49876 C192.41032,30.62996 194.00992,27.35636 195.86992,24.67796 C197.73112,21.99956 199.64032,20.00396 201.59872,18.68876 C203.55832,17.37476 205.40512,16.71716 207.14272,16.71716 C208.87792,16.71716 210.10432,17.11436 210.82552,17.90756 C211.54432,18.70196 211.90312,19.91636 211.90312,21.55316 C211.90312,23.14076 211.43152,26.01716 210.49072,30.18356 C210.09352,31.96916 209.81992,33.30836 209.67112,34.20116 C212.15032,28.10036 214.90312,23.66156 217.93072,20.88356 C220.95472,18.10676 223.78192,16.71716 226.41112,16.71716 C229.63552,16.71716 231.24712,18.32876 231.24712,21.55316 C231.24712,23.48756 230.70112,26.98436 229.61032,32.04356 C228.66832,36.35876 228.19672,39.21116 228.19672,40.59956 C228.19672,42.58436 228.91552,43.57556 230.35432,43.57556 C231.34552,43.57556 232.52392,42.96836 233.88952,41.75276 C234.878106,40.8713071 236.11009,39.5903026 237.583636,37.9111229 C237.702816,31.9566763 238.61624,26.2805239 240.3226,20.88356 C240.769,19.44596 241.4998,18.39116 242.5174,17.72156 C243.5338,17.05196 244.9606,16.71716 246.7966,16.71716 C247.7878,16.71716 248.4814,16.84196 248.8798,17.08916 C249.2758,17.33756 249.4738,17.80916 249.4738,18.50276 C249.4738,19.29716 249.1018,21.08276 248.3578,23.85836 C247.8622,25.84436 247.465,27.57956 247.1674,29.06756 C246.8698,30.55556 246.6214,32.39156 246.4234,34.57316 C248.0602,30.30836 249.8962,26.83556 251.9302,24.15716 C253.963,21.47876 255.9586,19.56956 257.9182,18.42836 C259.8778,17.28836 261.6766,16.71716 263.3122,16.71716 C266.5366,16.71716 268.1482,18.32876 268.1482,21.55316 C268.1482,23.48756 267.6022,26.98436 266.5114,32.04356 C265.5694,36.35876 265.0978,39.21116 265.0978,40.59956 C265.0978,42.58436 265.8166,43.57556 267.2554,43.57556 C268.2478,43.57556 269.425,42.96836 270.7906,41.75276 C271.719548,40.9244824 272.863412,39.7434065 274.22067,38.2106744 C275.001825,32.0105368 276.052405,26.2356993 277.37308,20.88308 C277.77028,19.34588 278.42668,18.26828 279.34468,17.64668 C280.26268,17.02748 281.73628,16.71788 283.77148,16.71788 C285.90388,16.71788 286.97068,17.58548 286.97068,19.32188 C286.97068,19.57028 286.92148,20.04068 286.82188,20.73428 C284.58988,31.34948 283.25068,40.25348 282.80428,47.44388 C282.70468,49.03148 282.23308,50.14868 281.39068,50.79188 C280.54708,51.43628 279.23308,51.75908 277.44748,51.75908 C275.85988,51.75908 274.76908,51.43628 274.17388,50.79188 C273.664941,50.2418974 273.373592,49.4181726 273.299832,48.3222062 C272.889681,48.6391654 272.474312,48.9414667 272.0542,49.22996 C269.599,50.91596 266.809,51.75836 263.6854,51.75836 C261.1546,51.75836 259.2454,51.02756 257.9554,49.56476 C256.6654,48.10316 256.021,45.98156 256.021,43.20356 C256.021,41.81516 256.3678,39.33476 257.0626,35.76356 C257.707,32.63876 258.031,30.48116 258.031,29.29076 C258.031,28.49876 257.7562,28.10036 257.2114,28.10036 C256.567,28.10036 255.661,28.93196 254.497,30.59276 C253.3306,32.25596 252.1402,34.45076 250.9246,37.17716 C249.709,39.90596 248.731,42.78236 247.987,45.80756 C247.4398,48.13916 246.8074,49.71356 246.0898,50.53196 C245.3698,51.35036 244.2406,51.75836 242.7034,51.75836 C240.8182,51.75836 239.4922,50.76716 238.723,48.78356 C238.508608,48.2310229 238.32414,47.5857293 238.16957,46.8477831 C237.193167,47.7255916 236.187521,48.5196308 235.15312,49.22996 C232.69792,50.91596 229.90792,51.75836 226.78432,51.75836 C224.25352,51.75836 222.34432,51.02756 221.05432,49.56476 C219.76432,48.10316 219.11992,45.98156 219.11992,43.20356 C219.11992,41.81516 219.46672,39.33476 220.16152,35.76356 C220.80592,32.63876 221.12992,30.48116 221.12992,29.29076 C221.12992,28.49876 220.85632,28.10036 220.31032,28.10036 C219.66592,28.10036 218.74792,28.93196 217.55752,30.59276 C216.36712,32.25596 215.17792,34.45076 213.98752,37.17716 C212.79592,39.90596 211.82992,42.78236 211.08592,45.80756 C210.53992,48.18836 209.90632,49.77596 209.18872,50.56916 C208.46872,51.36236 207.31552,51.75836 205.72912,51.75836 C204.09232,51.75836 202.86352,50.97836 202.04632,49.41596 C201.22792,47.85356 200.81752,45.95636 200.81752,43.72436 C200.81752,41.84036 201.06592,39.11036 201.56152,35.54036 C201.95872,32.36636 202.15672,30.28316 202.15672,29.29076 C202.15672,28.49876 201.88432,28.10036 201.33952,28.10036 C200.59552,28.10036 199.65112,28.99316 198.51112,30.77876 C197.36992,32.56436 196.26712,34.84676 195.20032,37.62356 C194.13352,40.40276 193.27792,43.12916 192.63472,45.80756 C192.08752,48.13916 191.45512,49.71356 190.73752,50.53196 C190.01752,51.35036 188.88832,51.75836 187.35112,51.75836 C185.46592,51.75836 184.13992,50.76716 183.37072,48.78356 C182.60152,46.80116 182.21752,43.62476 182.21752,39.25916 C182.21752,38.6082129 182.226881,37.9605328 182.2456,37.3161222 C180.423272,37.6857293 178.504321,37.9115416 176.49076,37.99544 C175.54756,42.16184 173.68756,45.49904 170.91076,48.00224 C168.13156,50.50784 164.98276,51.75944 161.46076,51.75944 C158.48596,51.75944 155.94316,51.04064 153.83596,49.60184 C151.72636,48.16304 150.12676,46.25384 149.03716,43.87304 C147.94516,41.49224 147.40036,38.91344 147.40036,36.13544 C147.40036,32.36624 148.11796,29.00624 149.55796,26.05424 C150.99556,23.10464 152.98036,20.79824 155.50996,19.13504 C158.03956,17.47304 160.84156,16.64264 163.91596,16.64264 Z M163.99156,24.52904 L163.61836,24.52904 C161.63476,24.52904 159.98476,25.48424 158.67196,27.39344 C157.35796,29.30384 156.70036,31.99424 156.70036,35.46584 C156.70036,38.19464 157.23196,40.27664 158.29996,41.71544 C159.36556,43.15544 160.61716,43.87304 162.05716,43.87304 C163.64356,43.87304 165.01996,43.22864 166.18636,41.93864 C167.35156,40.64984 168.13156,38.78984 168.52996,36.35864 C166.99156,35.31704 165.81316,33.95384 164.99596,32.26664 C164.17756,30.58064 163.76716,28.79504 163.76716,26.90984 C163.76716,26.11664 163.84276,25.32224 163.99156,24.52904 Z M285.48268,0.19988 C287.31748,0.19988 288.80548,0.64628 289.94668,1.53908 C291.08668,2.43188 291.65788,3.69668 291.65788,5.33348 C291.65788,7.31828 291.01348,8.89268 289.72348,10.05788 C288.43228,11.22428 286.72228,11.80628 284.58988,11.80628 C282.50668,11.80628 280.94428,11.32388 279.90268,10.35548 C278.86108,9.38828 278.34028,8.03708 278.34028,6.30068 C278.34028,4.56548 279.02188,3.11468 280.38628,1.94828 C281.74948,0.78308 283.44868,0.19988 285.48268,0.19988 Z" id="Combined-Shape" fill="#00ADEF"></path>
            </g>
        </g>
    </g>
</svg>